<svg width="1630" height="671" viewBox="0 0 1630 671" fill="none" xmlns="http://www.w3.org/2000/svg">
<path d="M319.613 70.439C319.744 65.8839 325.926 64.6116 327.846 68.7447L331.612 76.8578C332.301 78.3415 333.77 79.3085 335.405 79.3556L344.346 79.6129C348.901 79.744 350.173 85.9266 346.04 87.8456L337.927 91.6126C336.443 92.3015 335.476 93.7696 335.429 95.4048L335.172 104.346C335.041 108.901 328.858 110.173 326.939 106.04L323.172 97.9272C322.483 96.4435 321.015 95.4764 319.38 95.4294L310.439 95.1721C305.884 95.041 304.612 88.8584 308.745 86.9393L316.858 83.1724C318.341 82.4835 319.308 81.0153 319.355 79.3802L319.613 70.439Z" fill="#F0DB1E"/>
<path d="M1609.06 650.056C1608.35 647.948 1610.96 646.317 1612.54 647.884L1615.64 650.96C1616.21 651.522 1617.05 651.716 1617.81 651.46L1621.94 650.061C1624.05 649.348 1625.68 651.963 1624.12 653.543L1621.04 656.645C1620.48 657.212 1620.28 658.049 1620.54 658.805L1621.94 662.944C1622.65 665.052 1620.04 666.684 1618.46 665.117L1615.36 662.041C1614.79 661.478 1613.95 661.284 1613.19 661.54L1609.06 662.94C1606.95 663.653 1605.32 661.037 1606.88 659.457L1609.96 656.355C1610.52 655.788 1610.72 654.952 1610.46 654.195L1609.06 650.056Z" fill="white"/>
<path d="M678.027 8.02279C677.314 5.9146 679.929 4.28281 681.51 5.8499L684.611 8.92599C685.179 9.48854 686.015 9.68224 686.772 9.42632L690.91 8.02691C693.018 7.31399 694.65 9.92934 693.083 11.5095L690.007 14.6113C689.444 15.1785 689.251 16.015 689.506 16.7718L690.906 20.91C691.619 23.0182 689.003 24.65 687.423 23.0829L684.321 20.0068C683.754 19.4443 682.918 19.2506 682.161 19.5065L678.023 20.9059C675.915 21.6188 674.283 19.0035 675.85 17.4233L678.926 14.3215C679.489 13.7543 679.682 12.9178 679.426 12.161L678.027 8.02279Z" fill="white"/>
<path d="M15.5661 599.11C15.7463 595.087 21.2273 594.05 22.8645 597.73L26.0783 604.952C26.666 606.272 27.9496 607.148 29.3938 607.212L37.2907 607.566C41.3137 607.746 42.3505 613.227 38.6713 614.864L31.4493 618.078C30.1285 618.666 29.2533 619.95 29.1886 621.394L28.8348 629.291C28.6545 633.314 23.1736 634.35 21.5363 630.671L18.3225 623.449C17.7348 622.129 16.4512 621.253 15.007 621.189L7.11015 620.835C3.08713 620.655 2.05032 615.174 5.72954 613.536L12.9515 610.323C14.2723 609.735 15.1475 608.451 15.2122 607.007L15.5661 599.11Z" fill="white"/>
</svg>
