<svg width="1917" height="2359" viewBox="0 0 1917 2359" fill="none" xmlns="http://www.w3.org/2000/svg">
<mask id="mask0_52_179" style="mask-type:alpha" maskUnits="userSpaceOnUse" x="0" y="0" width="1917" height="2359">
<rect width="1917" height="2359" fill="#D9D9D9"/>
</mask>
<g mask="url(#mask0_52_179)">
<rect x="-3" width="1920" height="2359" fill="#030A1D"/>
<path d="M1808.32 2212.52C1801.77 2222.54 1789.77 2228.41 1773.55 2230.35C1757.33 2232.29 1736.96 2230.29 1713.81 2224.68C1667.5 2213.44 1610.14 2187.73 1552.74 2150.2C1495.33 2112.67 1448.77 2070.45 1419.9 2032.54C1405.46 2013.58 1395.46 1995.73 1390.73 1980.09C1386 1964.46 1386.56 1951.11 1393.11 1941.09C1399.66 1931.07 1411.66 1925.21 1427.88 1923.27C1444.1 1921.33 1464.47 1923.32 1487.62 1928.94C1533.93 1940.18 1591.29 1965.88 1648.69 2003.41C1706.1 2040.94 1752.66 2083.17 1781.53 2121.08C1795.97 2140.03 1805.97 2157.89 1810.7 2173.52C1815.43 2189.16 1814.87 2202.5 1808.32 2212.52Z" stroke="url(#paint0_linear_52_179)" stroke-opacity="0.4" stroke-linejoin="round"/>
<g filter="url(#filter0_f_52_179)">
<ellipse cx="1583.81" cy="2085.87" rx="222.645" ry="134.985" transform="rotate(-21.7539 1583.81 2085.87)" fill="url(#paint1_radial_52_179)"/>
</g>
<g style="mix-blend-mode:hard-light" opacity="0.6" filter="url(#filter1_f_52_179)">
<circle cx="1850.99" cy="404" r="391" fill="url(#paint2_radial_52_179)"/>
</g>
<circle cx="1853.99" cy="405" r="139" fill="url(#paint3_linear_52_179)"/>
<path fill-rule="evenodd" clip-rule="evenodd" d="M1878.92 268.652C1814.25 280.397 1765.21 337.002 1765.21 405.061C1765.21 473.119 1814.25 529.724 1878.92 541.47C1870.83 542.939 1862.5 543.706 1853.98 543.706C1777.41 543.706 1715.34 481.632 1715.34 405.061C1715.34 328.489 1777.41 266.415 1853.98 266.415C1862.5 266.415 1870.83 267.183 1878.92 268.652Z" fill="url(#paint4_linear_52_179)"/>
<g filter="url(#filter2_f_52_179)">
<ellipse cx="397.996" cy="1307.79" rx="724.651" ry="310.302" transform="rotate(-31.9895 397.996 1307.79)" fill="url(#paint5_radial_52_179)"/>
</g>
<path d="M625.41 1146.63C633.162 1159.04 634.697 1174.57 630.766 1192.07C626.835 1209.58 617.441 1229.03 603.39 1249.22C575.289 1289.61 528.617 1332.9 470.024 1369.5C411.432 1406.1 352.054 1429.05 303.432 1436.58C279.121 1440.35 257.523 1440.26 240.066 1436.11C222.613 1431.96 209.334 1423.77 201.582 1411.36C193.83 1398.95 192.295 1383.43 196.226 1365.92C200.157 1348.42 209.551 1328.97 223.602 1308.77C251.703 1268.39 298.376 1225.09 356.968 1188.5C415.56 1151.9 474.938 1128.95 523.56 1121.42C547.872 1117.65 569.469 1117.74 586.926 1121.89C604.379 1126.03 617.658 1134.22 625.41 1146.63Z" stroke="url(#paint6_linear_52_179)" stroke-opacity="0.4" stroke-linejoin="round"/>
<path d="M779.395 1092.61C792.012 1112.81 794.496 1138.06 788.114 1166.48C781.732 1194.9 766.488 1226.45 743.704 1259.2C698.139 1324.68 622.474 1394.86 527.5 1454.18C432.527 1513.51 336.269 1550.71 257.429 1562.93C218.008 1569.04 182.967 1568.9 154.628 1562.16C126.292 1555.43 104.691 1542.12 92.0739 1521.92C79.4567 1501.72 76.9732 1476.47 83.3551 1448.06C89.7376 1419.64 104.981 1388.09 127.765 1355.34C173.331 1289.85 248.996 1219.67 343.969 1160.35C438.942 1101.03 535.201 1063.82 614.04 1051.61C653.461 1045.5 688.502 1045.64 716.841 1052.37C745.178 1059.1 766.778 1072.41 779.395 1092.61Z" stroke="url(#paint7_linear_52_179)" stroke-opacity="0.4" stroke-linejoin="round"/>
<path d="M922.46 1035.34C939.939 1063.32 943.371 1098.29 934.539 1137.61C925.708 1176.94 904.617 1220.59 873.107 1265.87C810.089 1356.45 705.45 1453.49 574.12 1535.52C442.791 1617.55 309.676 1669.01 200.638 1685.91C146.118 1694.36 97.6423 1694.16 58.428 1684.84C19.2166 1675.53 -10.7001 1657.11 -28.1792 1629.12C-45.6584 1601.14 -49.0898 1566.17 -40.2586 1526.85C-31.4267 1487.52 -10.3364 1443.87 21.1735 1398.59C84.1923 1308.01 188.831 1210.97 320.16 1128.94C451.49 1046.91 584.605 995.449 693.643 978.553C748.163 970.104 796.639 970.3 835.853 979.616C875.064 988.931 904.981 1007.35 922.46 1035.34Z" stroke="url(#paint8_linear_52_179)" stroke-opacity="0.4" stroke-linejoin="round"/>
<g filter="url(#filter3_f_52_179)">
<ellipse cx="412.493" cy="1272" rx="235.5" ry="236" fill="url(#paint9_radial_52_179)"/>
</g>
<g filter="url(#filter4_f_52_179)">
<ellipse cx="412.993" cy="1271.5" rx="49" ry="48.5" fill="#AEF0FD"/>
</g>
</g>
<defs>
<filter id="filter0_f_52_179" x="1326.01" y="1890.76" width="515.608" height="390.215" filterUnits="userSpaceOnUse" color-interpolation-filters="sRGB">
<feFlood flood-opacity="0" result="BackgroundImageFix"/>
<feBlend mode="normal" in="SourceGraphic" in2="BackgroundImageFix" result="shape"/>
<feGaussianBlur stdDeviation="22.5" result="effect1_foregroundBlur_52_179"/>
</filter>
<filter id="filter1_f_52_179" x="1414.99" y="-32" width="872" height="872" filterUnits="userSpaceOnUse" color-interpolation-filters="sRGB">
<feFlood flood-opacity="0" result="BackgroundImageFix"/>
<feBlend mode="normal" in="SourceGraphic" in2="BackgroundImageFix" result="shape"/>
<feGaussianBlur stdDeviation="22.5" result="effect1_foregroundBlur_52_179"/>
</filter>
<filter id="filter2_f_52_179" x="-318.375" y="762.305" width="1432.74" height="1090.98" filterUnits="userSpaceOnUse" color-interpolation-filters="sRGB">
<feFlood flood-opacity="0" result="BackgroundImageFix"/>
<feBlend mode="normal" in="SourceGraphic" in2="BackgroundImageFix" result="shape"/>
<feGaussianBlur stdDeviation="40" result="effect1_foregroundBlur_52_179"/>
</filter>
<filter id="filter3_f_52_179" x="131.993" y="991" width="561" height="562" filterUnits="userSpaceOnUse" color-interpolation-filters="sRGB">
<feFlood flood-opacity="0" result="BackgroundImageFix"/>
<feBlend mode="normal" in="SourceGraphic" in2="BackgroundImageFix" result="shape"/>
<feGaussianBlur stdDeviation="22.5" result="effect1_foregroundBlur_52_179"/>
</filter>
<filter id="filter4_f_52_179" x="323.993" y="1183" width="178" height="177" filterUnits="userSpaceOnUse" color-interpolation-filters="sRGB">
<feFlood flood-opacity="0" result="BackgroundImageFix"/>
<feBlend mode="normal" in="SourceGraphic" in2="BackgroundImageFix" result="shape"/>
<feGaussianBlur stdDeviation="20" result="effect1_foregroundBlur_52_179"/>
</filter>
<linearGradient id="paint0_linear_52_179" x1="1648.97" y1="2003" x2="1552.46" y2="2150.62" gradientUnits="userSpaceOnUse">
<stop stop-color="#F9F9F9" stop-opacity="0"/>
<stop offset="1" stop-color="#F9F9F9"/>
</linearGradient>
<radialGradient id="paint1_radial_52_179" cx="0" cy="0" r="1" gradientUnits="userSpaceOnUse" gradientTransform="translate(1583.81 2085.87) rotate(90) scale(152.076 250.834)">
<stop offset="0.135417" stop-color="white"/>
<stop offset="0.4375" stop-color="white" stop-opacity="0"/>
<stop offset="0.723958" stop-color="#EB4997"/>
<stop offset="1" stop-color="#EB4997" stop-opacity="0"/>
</radialGradient>
<radialGradient id="paint2_radial_52_179" cx="0" cy="0" r="1" gradientUnits="userSpaceOnUse" gradientTransform="translate(1850.99 404) rotate(90) scale(440.504)">
<stop stop-color="#EB4997"/>
<stop offset="1" stop-color="#FDA85B" stop-opacity="0"/>
</radialGradient>
<linearGradient id="paint3_linear_52_179" x1="1992.99" y1="404" x2="1726.99" y2="404" gradientUnits="userSpaceOnUse">
<stop stop-color="#FC9655"/>
<stop offset="1" stop-color="#EC7053"/>
</linearGradient>
<linearGradient id="paint4_linear_52_179" x1="1715.34" y1="404.063" x2="1859.97" y2="404.063" gradientUnits="userSpaceOnUse">
<stop stop-color="white" stop-opacity="0.74"/>
<stop offset="1" stop-color="white" stop-opacity="0"/>
</linearGradient>
<radialGradient id="paint5_radial_52_179" cx="0" cy="0" r="1" gradientUnits="userSpaceOnUse" gradientTransform="translate(397.996 1307.79) rotate(90) scale(349.589 816.399)">
<stop stop-color="#2D58F3"/>
<stop offset="1" stop-color="#7850E9" stop-opacity="0"/>
</radialGradient>
<linearGradient id="paint6_linear_52_179" x1="356.703" y1="1188.07" x2="470.289" y2="1369.92" gradientUnits="userSpaceOnUse">
<stop stop-color="#F9F9F9" stop-opacity="0"/>
<stop offset="1" stop-color="#F9F9F9"/>
</linearGradient>
<linearGradient id="paint7_linear_52_179" x1="343.704" y1="1159.93" x2="527.765" y2="1454.61" gradientUnits="userSpaceOnUse">
<stop stop-color="#F9F9F9" stop-opacity="0"/>
<stop offset="1" stop-color="#F9F9F9"/>
</linearGradient>
<linearGradient id="paint8_linear_52_179" x1="319.896" y1="1128.51" x2="574.385" y2="1535.95" gradientUnits="userSpaceOnUse">
<stop stop-color="#F9F9F9" stop-opacity="0"/>
<stop offset="1" stop-color="#F9F9F9"/>
</linearGradient>
<radialGradient id="paint9_radial_52_179" cx="0" cy="0" r="1" gradientUnits="userSpaceOnUse" gradientTransform="translate(412.493 1272) rotate(90) scale(265.88 265.317)">
<stop stop-color="#2DF364"/>
<stop offset="1" stop-color="#50E9E9" stop-opacity="0"/>
</radialGradient>
</defs>
</svg>
