<svg width="531" height="427" viewBox="0 0 531 427" fill="none" xmlns="http://www.w3.org/2000/svg">
<path d="M482.328 345.524C475.778 355.544 463.779 361.406 447.557 363.346C431.339 365.286 410.972 363.294 387.815 357.676C341.507 346.441 284.152 320.734 226.743 283.204C169.333 245.675 122.775 203.452 93.9044 165.542C79.468 146.584 69.4718 128.728 64.7417 113.094C60.0107 97.4561 60.5666 84.1132 67.1164 74.0937C73.6663 64.0742 85.6653 58.2119 101.887 56.2716C118.106 54.3317 138.473 56.324 161.629 61.942C207.938 73.1768 265.292 98.8841 322.702 136.414C380.112 173.943 426.67 216.166 455.54 254.076C469.977 273.033 479.973 290.89 484.703 306.524C489.434 322.162 488.878 335.505 482.328 345.524Z" stroke="url(#paint0_linear_1_4)" stroke-opacity="0.4" stroke-linejoin="round"/>
<g filter="url(#filter0_f_1_4)">
<ellipse cx="257.817" cy="218.866" rx="222.645" ry="134.985" transform="rotate(-21.7539 257.817 218.866)" fill="url(#paint1_radial_1_4)"/>
</g>
<defs>
<filter id="filter0_f_1_4" x="0.0136719" y="23.7589" width="515.607" height="390.215" filterUnits="userSpaceOnUse" color-interpolation-filters="sRGB">
<feFlood flood-opacity="0" result="BackgroundImageFix"/>
<feBlend mode="normal" in="SourceGraphic" in2="BackgroundImageFix" result="shape"/>
<feGaussianBlur stdDeviation="22.5" result="effect1_foregroundBlur_1_4"/>
</filter>
<linearGradient id="paint0_linear_1_4" x1="322.976" y1="135.995" x2="226.469" y2="283.623" gradientUnits="userSpaceOnUse">
<stop stop-color="#F9F9F9" stop-opacity="0"/>
<stop offset="1" stop-color="#F9F9F9"/>
</linearGradient>
<radialGradient id="paint1_radial_1_4" cx="0" cy="0" r="1" gradientUnits="userSpaceOnUse" gradientTransform="translate(257.817 218.866) rotate(90) scale(152.076 250.834)">
<stop offset="0.135417" stop-color="white"/>
<stop offset="0.4375" stop-color="white" stop-opacity="0"/>
<stop offset="0.723958" stop-color="#EB4997"/>
<stop offset="1" stop-color="#EB4997" stop-opacity="0"/>
</radialGradient>
</defs>
</svg>
