<svg width="502" height="872" viewBox="0 0 502 872" fill="none" xmlns="http://www.w3.org/2000/svg">
<g style="mix-blend-mode:hard-light" opacity="0.6" filter="url(#filter0_f_1_3)">
<circle cx="436" cy="436" r="391" fill="url(#paint0_radial_1_3)"/>
</g>
<circle cx="439" cy="437" r="139" fill="url(#paint1_linear_1_3)"/>
<path fill-rule="evenodd" clip-rule="evenodd" d="M463.928 300.652C399.258 312.397 350.219 369.002 350.219 437.061C350.219 505.119 399.258 561.724 463.928 573.47C455.839 574.939 447.505 575.706 438.992 575.706C362.42 575.706 300.347 513.632 300.347 437.061C300.347 360.489 362.42 298.415 438.992 298.415C447.505 298.415 455.839 299.183 463.928 300.652Z" fill="url(#paint2_linear_1_3)"/>
<defs>
<filter id="filter0_f_1_3" x="0" y="0" width="872" height="872" filterUnits="userSpaceOnUse" color-interpolation-filters="sRGB">
<feFlood flood-opacity="0" result="BackgroundImageFix"/>
<feBlend mode="normal" in="SourceGraphic" in2="BackgroundImageFix" result="shape"/>
<feGaussianBlur stdDeviation="22.5" result="effect1_foregroundBlur_1_3"/>
</filter>
<radialGradient id="paint0_radial_1_3" cx="0" cy="0" r="1" gradientUnits="userSpaceOnUse" gradientTransform="translate(436 436) rotate(90) scale(440.504)">
<stop stop-color="#EB4997"/>
<stop offset="1" stop-color="#FDA85B" stop-opacity="0"/>
</radialGradient>
<linearGradient id="paint1_linear_1_3" x1="578" y1="436" x2="312" y2="436" gradientUnits="userSpaceOnUse">
<stop stop-color="#FC9655"/>
<stop offset="1" stop-color="#EC7053"/>
</linearGradient>
<linearGradient id="paint2_linear_1_3" x1="300.347" y1="436.063" x2="444.977" y2="436.063" gradientUnits="userSpaceOnUse">
<stop stop-color="white" stop-opacity="0.74"/>
<stop offset="1" stop-color="white" stop-opacity="0"/>
</linearGradient>
</defs>
</svg>
