<svg width="1180" height="1295" viewBox="0 0 1180 1295" fill="none" xmlns="http://www.w3.org/2000/svg">
<g filter="url(#filter0_f_1_2)">
<ellipse cx="401.004" cy="647.794" rx="724.651" ry="310.302" transform="rotate(-31.9895 401.004 647.794)" fill="url(#paint0_radial_1_2)"/>
</g>
<path d="M628.418 486.633C636.169 499.044 637.705 514.57 633.774 532.074C629.842 549.58 620.449 569.028 606.398 589.223C578.297 629.61 531.624 672.901 473.032 709.499C414.439 746.096 355.061 769.046 306.44 776.581C282.128 780.348 260.53 780.257 243.074 776.11C225.62 771.964 212.341 763.773 204.589 751.363C196.837 738.952 195.302 723.426 199.233 705.922C203.165 688.416 212.558 668.968 226.609 648.773C254.71 608.385 301.383 565.095 359.975 528.497C418.568 491.899 477.945 468.949 526.567 461.415C550.879 457.648 572.477 457.738 589.933 461.885C607.387 466.032 620.666 474.223 628.418 486.633Z" stroke="url(#paint1_linear_1_2)" stroke-opacity="0.4" stroke-linejoin="round"/>
<path d="M782.403 432.613C795.02 452.813 797.503 478.062 791.121 506.479C784.739 534.899 769.495 566.451 746.712 599.196C701.146 664.685 625.481 734.862 530.508 794.184C435.535 853.506 339.276 890.714 260.436 902.931C221.015 909.039 185.974 908.896 157.635 902.164C129.299 895.432 107.698 882.123 95.0812 861.923C82.4641 841.724 79.9805 816.474 86.3624 788.057C92.7449 759.637 107.989 728.085 130.772 695.34C176.338 629.852 252.003 559.674 346.976 500.352C441.949 441.031 538.208 403.822 617.048 391.606C656.469 385.497 691.51 385.64 719.849 392.372C748.185 399.104 769.786 412.413 782.403 432.613Z" stroke="url(#paint2_linear_1_2)" stroke-opacity="0.4" stroke-linejoin="round"/>
<path d="M925.467 375.338C942.947 403.322 946.378 438.289 937.547 477.612C928.715 516.938 907.624 560.586 876.115 605.873C813.096 696.445 708.457 793.493 577.128 875.523C445.798 957.553 312.683 1009.01 203.645 1025.91C149.125 1034.36 100.65 1034.16 61.4353 1024.84C22.2239 1015.53 -7.69274 997.105 -25.1719 969.121C-42.6511 941.137 -46.0825 906.171 -37.2513 866.847C-28.4194 827.521 -7.32907 783.874 24.1809 738.586C87.1996 648.014 191.838 550.967 323.168 468.936C454.497 386.906 587.612 335.449 696.65 318.552C751.17 310.104 799.646 310.3 838.86 319.616C878.072 328.931 907.988 347.354 925.467 375.338Z" stroke="url(#paint3_linear_1_2)" stroke-opacity="0.4" stroke-linejoin="round"/>
<g filter="url(#filter1_f_1_2)">
<ellipse cx="415.5" cy="612" rx="235.5" ry="236" fill="url(#paint4_radial_1_2)"/>
</g>
<g filter="url(#filter2_f_1_2)">
<ellipse cx="416" cy="611.5" rx="49" ry="48.5" fill="#AEF0FD"/>
</g>
<defs>
<filter id="filter0_f_1_2" x="-315.368" y="102.305" width="1432.74" height="1090.98" filterUnits="userSpaceOnUse" color-interpolation-filters="sRGB">
<feFlood flood-opacity="0" result="BackgroundImageFix"/>
<feBlend mode="normal" in="SourceGraphic" in2="BackgroundImageFix" result="shape"/>
<feGaussianBlur stdDeviation="40" result="effect1_foregroundBlur_1_2"/>
</filter>
<filter id="filter1_f_1_2" x="135" y="331" width="561" height="562" filterUnits="userSpaceOnUse" color-interpolation-filters="sRGB">
<feFlood flood-opacity="0" result="BackgroundImageFix"/>
<feBlend mode="normal" in="SourceGraphic" in2="BackgroundImageFix" result="shape"/>
<feGaussianBlur stdDeviation="22.5" result="effect1_foregroundBlur_1_2"/>
</filter>
<filter id="filter2_f_1_2" x="327" y="523" width="178" height="177" filterUnits="userSpaceOnUse" color-interpolation-filters="sRGB">
<feFlood flood-opacity="0" result="BackgroundImageFix"/>
<feBlend mode="normal" in="SourceGraphic" in2="BackgroundImageFix" result="shape"/>
<feGaussianBlur stdDeviation="20" result="effect1_foregroundBlur_1_2"/>
</filter>
<radialGradient id="paint0_radial_1_2" cx="0" cy="0" r="1" gradientUnits="userSpaceOnUse" gradientTransform="translate(401.004 647.794) rotate(90) scale(349.589 816.399)">
<stop stop-color="#2D58F3"/>
<stop offset="1" stop-color="#7850E9" stop-opacity="0"/>
</radialGradient>
<linearGradient id="paint1_linear_1_2" x1="359.71" y1="528.073" x2="473.296" y2="709.923" gradientUnits="userSpaceOnUse">
<stop stop-color="#F9F9F9" stop-opacity="0"/>
<stop offset="1" stop-color="#F9F9F9"/>
</linearGradient>
<linearGradient id="paint2_linear_1_2" x1="346.711" y1="499.928" x2="530.773" y2="794.608" gradientUnits="userSpaceOnUse">
<stop stop-color="#F9F9F9" stop-opacity="0"/>
<stop offset="1" stop-color="#F9F9F9"/>
</linearGradient>
<linearGradient id="paint3_linear_1_2" x1="322.903" y1="468.512" x2="577.393" y2="875.947" gradientUnits="userSpaceOnUse">
<stop stop-color="#F9F9F9" stop-opacity="0"/>
<stop offset="1" stop-color="#F9F9F9"/>
</linearGradient>
<radialGradient id="paint4_radial_1_2" cx="0" cy="0" r="1" gradientUnits="userSpaceOnUse" gradientTransform="translate(415.5 612) rotate(90) scale(265.88 265.317)">
<stop stop-color="#2DF364"/>
<stop offset="1" stop-color="#50E9E9" stop-opacity="0"/>
</radialGradient>
</defs>
</svg>
