<svg width="1694" height="657" viewBox="0 0 1694 657" fill="none" xmlns="http://www.w3.org/2000/svg">
<path d="M572.194 639.976C570.477 638.56 571.841 635.795 574.009 636.295L578.266 637.276C579.045 637.455 579.858 637.179 580.366 636.563L583.147 633.194C584.563 631.477 587.328 632.841 586.828 635.009L585.847 639.266C585.668 640.045 585.944 640.858 586.56 641.366L589.929 644.147C591.646 645.563 590.282 648.328 588.114 647.828L583.857 646.847C583.078 646.668 582.265 646.944 581.757 647.56L578.976 650.929C577.56 652.646 574.795 651.282 575.295 649.114L576.276 644.857C576.455 644.078 576.179 643.265 575.563 642.757L572.194 639.976Z" fill="#F0DB1E"/>
<path d="M5.1935 11.9763C3.477 10.5598 4.84054 7.79514 7.00919 8.29482L11.2661 9.27566C12.0446 9.45504 12.8576 9.17909 13.3661 8.5629L16.1465 5.19354C17.563 3.47704 20.3277 4.84057 19.828 7.00923L18.8472 11.2661C18.6678 12.0446 18.9437 12.8577 19.5599 13.3661L22.9293 16.1465C24.6458 17.563 23.2822 20.3277 21.1136 19.828L16.8567 18.8472C16.0782 18.6678 15.2652 18.9438 14.7567 19.5599L11.9763 22.9293C10.5598 24.6458 7.7951 23.2823 8.29479 21.1136L9.27563 16.8567C9.455 16.0782 9.17905 15.2652 8.56287 14.7567L5.1935 11.9763Z" fill="#F0DB1E"/>
<path d="M1103.98 110.821C1101.91 110.005 1102.35 106.954 1104.57 106.759L1108.92 106.375C1109.72 106.305 1110.41 105.791 1110.7 105.047L1112.3 100.983C1113.12 98.9128 1116.17 99.3543 1116.36 101.571L1116.75 105.923C1116.82 106.719 1117.33 107.406 1118.08 107.699L1122.14 109.301C1124.21 110.117 1123.77 113.168 1121.55 113.364L1117.2 113.748C1116.4 113.818 1115.72 114.332 1115.42 115.075L1113.82 119.139C1113.01 121.21 1109.95 120.768 1109.76 118.551L1109.38 114.2C1109.3 113.404 1108.79 112.716 1108.05 112.423L1103.98 110.821Z" fill="#F0DB1E"/>
<path d="M1672.61 291.45C1670.39 291.277 1669.91 288.231 1671.98 287.394L1676.02 285.751C1676.76 285.45 1677.27 284.757 1677.33 283.961L1677.67 279.605C1677.85 277.387 1680.89 276.914 1681.73 278.976L1683.37 283.024C1683.67 283.764 1684.37 284.271 1685.16 284.333L1689.52 284.673C1691.74 284.846 1692.21 287.892 1690.15 288.729L1686.1 290.372C1685.36 290.673 1684.85 291.366 1684.79 292.162L1684.45 296.518C1684.28 298.736 1681.23 299.209 1680.39 297.147L1678.75 293.099C1678.45 292.359 1677.76 291.852 1676.96 291.79L1672.61 291.45Z" fill="#F0DB1E"/>
</svg>
