<svg width="1459" height="584" viewBox="0 0 1459 584" fill="none" xmlns="http://www.w3.org/2000/svg">
<path d="M1049.9 538.125C1052.17 534.173 1058.22 535.974 1057.96 540.524L1057.44 549.454C1057.35 551.087 1058.18 552.633 1059.6 553.448L1067.36 557.901C1071.31 560.17 1069.51 566.219 1064.96 565.957L1056.03 565.441C1054.4 565.347 1052.85 566.183 1052.04 567.602L1047.58 575.359C1045.31 579.311 1039.26 577.51 1039.53 572.96L1040.04 564.03C1040.14 562.397 1039.3 560.851 1037.88 560.036L1030.12 555.583C1026.17 553.314 1027.97 547.264 1032.52 547.527L1041.45 548.043C1043.09 548.137 1044.63 547.301 1045.45 545.882L1049.9 538.125Z" fill="#F0DB1E"/>
<path d="M1435.64 6.23908C1437.41 2.62022 1442.85 3.85069 1442.89 7.87757L1442.96 15.782C1442.98 17.2276 1443.8 18.5414 1445.1 19.1756L1452.21 22.6434C1455.83 24.4101 1454.6 29.8508 1450.57 29.8883L1442.66 29.962C1441.22 29.9754 1439.9 30.8046 1439.27 32.1037L1435.8 39.2072C1434.04 42.8261 1428.6 41.5956 1428.56 37.5687L1428.48 29.6643C1428.47 28.2187 1427.64 26.9049 1426.34 26.2707L1419.24 22.8029C1415.62 21.0362 1416.85 15.5955 1420.88 15.5579L1428.78 15.4843C1430.23 15.4709 1431.54 14.6417 1432.18 13.3426L1435.64 6.23908Z" fill="white"/>
<path d="M3.87866 340.517C1.93584 339.431 2.78114 336.467 5.00426 336.569L9.36808 336.77C10.1661 336.807 10.9164 336.389 11.3061 335.692L13.4368 331.878C14.5222 329.936 17.4867 330.781 17.3843 333.004L17.1833 337.368C17.1465 338.166 17.5638 338.916 18.2613 339.306L22.0749 341.437C24.0177 342.522 23.1724 345.487 20.9493 345.384L16.5854 345.183C15.7874 345.146 15.0371 345.564 14.6474 346.261L12.5167 350.075C11.4313 352.017 8.46679 351.172 8.56921 348.949L8.77027 344.585C8.80703 343.787 8.38968 343.037 7.69225 342.647L3.87866 340.517Z" fill="white"/>
</svg>
